# xmcd
#
# Track frame offsets:
#	150
#	16861
#	33496
#	51751
#	73091
#	85866
#	107481
#	119107
#	138059
#	153369
#	166964
#	185723
#	206040
#	226569
#	244506
#	263498
#	282644
#	301331
#	318760
#
# Disc length: 4485 seconds
#
# Revision: 0
# Processed by: cddbd v1.5.2PL0 Copyright (c) Steve Scherf et al.
# Submitted via: EZCDAudioConverter 1.2.3.1
#
DISCID=fb118313
DTITLE=Q.Stone - The thrill is back
DYEAR=2013
DGENRE=bluesrock
TTITLE0=The thrill is back
TTITLE1=Just one night
TTITLE2=Standby man
TTITLE3=Waiting for the dawn
TTITLE4=Freedom (knocking on your door)
TTITLE5=Air pie
TTITLE6=Open door
TTITLE7=The river
TTITLE8=Homesick
TTITLE9=Train train
TTITLE10=Dead man at dawn
TTITLE11=Behind the bars
TTITLE12=Blue view
TTITLE13=Shake the tree
TTITLE14=Salty rain
TTITLE15=Do you still love me
TTITLE16=Blues people
TTITLE17=You should know
TTITLE18=Sweet dreams
EXTD=
EXTT0=
EXTT1=
EXTT2=
EXTT3=
EXTT4=
EXTT5=
EXTT6=
EXTT7=
EXTT8=
EXTT9=
EXTT10=
EXTT11=
EXTT12=
EXTT13=
EXTT14=
EXTT15=
EXTT16=
EXTT17=
EXTT18=
PLAYORDER=
